<?xml version="1.0" encoding="UTF-8" ?>
<svg version="1.1" width="50" height="50" xmlns="http://www.w3.org/2000/svg" shape-rendering="crispEdges">
<rect x="22" y="11" width="1" height="1" fill="#000000" />
<rect x="23" y="11" width="1" height="1" fill="#000000" />
<rect x="21" y="12" width="1" height="1" fill="#000000" />
<rect x="22" y="12" width="1" height="1" fill="#FFFFFF" />
<rect x="23" y="12" width="1" height="1" fill="#FFFFFF" />
<rect x="24" y="12" width="1" height="1" fill="#000000" />
<rect x="21" y="13" width="1" height="1" fill="#000000" />
<rect x="22" y="13" width="1" height="1" fill="#FFFFFF" />
<rect x="23" y="13" width="1" height="1" fill="#FFFFFF" />
<rect x="24" y="13" width="1" height="1" fill="#000000" />
<rect x="21" y="14" width="1" height="1" fill="#000000" />
<rect x="22" y="14" width="1" height="1" fill="#FFFFFF" />
<rect x="23" y="14" width="1" height="1" fill="#FFFFFF" />
<rect x="24" y="14" width="1" height="1" fill="#000000" />
<rect x="21" y="15" width="1" height="1" fill="#000000" />
<rect x="22" y="15" width="1" height="1" fill="#FFFFFF" />
<rect x="23" y="15" width="1" height="1" fill="#FFFFFF" />
<rect x="24" y="15" width="1" height="1" fill="#000000" />
<rect x="21" y="16" width="1" height="1" fill="#000000" />
<rect x="22" y="16" width="1" height="1" fill="#FFFFFF" />
<rect x="23" y="16" width="1" height="1" fill="#FFFFFF" />
<rect x="24" y="16" width="1" height="1" fill="#000000" />
<rect x="21" y="17" width="1" height="1" fill="#000000" />
<rect x="22" y="17" width="1" height="1" fill="#FFFFFF" />
<rect x="23" y="17" width="1" height="1" fill="#FFFFFF" />
<rect x="24" y="17" width="1" height="1" fill="#000000" />
<rect x="21" y="18" width="1" height="1" fill="#000000" />
<rect x="22" y="18" width="1" height="1" fill="#FFFFFF" />
<rect x="23" y="18" width="1" height="1" fill="#FFFFFF" />
<rect x="24" y="18" width="1" height="1" fill="#000000" />
<rect x="21" y="19" width="1" height="1" fill="#000000" />
<rect x="22" y="19" width="1" height="1" fill="#FFFFFF" />
<rect x="23" y="19" width="1" height="1" fill="#FFFFFF" />
<rect x="24" y="19" width="1" height="1" fill="#000000" />
<rect x="21" y="20" width="1" height="1" fill="#000000" />
<rect x="22" y="20" width="1" height="1" fill="#FFFFFF" />
<rect x="23" y="20" width="1" height="1" fill="#FFFFFF" />
<rect x="24" y="20" width="1" height="1" fill="#000000" />
<rect x="21" y="21" width="1" height="1" fill="#000000" />
<rect x="22" y="21" width="1" height="1" fill="#FFFFFF" />
<rect x="23" y="21" width="1" height="1" fill="#FFFFFF" />
<rect x="24" y="21" width="1" height="1" fill="#000000" />
<rect x="25" y="21" width="1" height="1" fill="#000000" />
<rect x="26" y="21" width="1" height="1" fill="#000000" />
<rect x="27" y="21" width="1" height="1" fill="#000000" />
<rect x="28" y="21" width="1" height="1" fill="#000000" />
<rect x="29" y="21" width="1" height="1" fill="#000000" />
<rect x="30" y="21" width="1" height="1" fill="#000000" />
<rect x="31" y="21" width="1" height="1" fill="#000000" />
<rect x="21" y="22" width="1" height="1" fill="#000000" />
<rect x="22" y="22" width="1" height="1" fill="#FFFFFF" />
<rect x="23" y="22" width="1" height="1" fill="#FFFFFF" />
<rect x="24" y="22" width="1" height="1" fill="#000000" />
<rect x="25" y="22" width="1" height="1" fill="#FFFFFF" />
<rect x="26" y="22" width="1" height="1" fill="#FFFFFF" />
<rect x="27" y="22" width="1" height="1" fill="#FFFFFF" />
<rect x="28" y="22" width="1" height="1" fill="#000000" />
<rect x="29" y="22" width="1" height="1" fill="#FFFFFF" />
<rect x="30" y="22" width="1" height="1" fill="#FFFFFF" />
<rect x="31" y="22" width="1" height="1" fill="#000000" />
<rect x="32" y="22" width="1" height="1" fill="#000000" />
<rect x="33" y="22" width="1" height="1" fill="#000000" />
<rect x="34" y="22" width="1" height="1" fill="#000000" />
<rect x="21" y="23" width="1" height="1" fill="#000000" />
<rect x="22" y="23" width="1" height="1" fill="#FFFFFF" />
<rect x="23" y="23" width="1" height="1" fill="#FFFFFF" />
<rect x="24" y="23" width="1" height="1" fill="#000000" />
<rect x="25" y="23" width="1" height="1" fill="#FFFFFF" />
<rect x="26" y="23" width="1" height="1" fill="#FFFFFF" />
<rect x="27" y="23" width="1" height="1" fill="#FFFFFF" />
<rect x="28" y="23" width="1" height="1" fill="#000000" />
<rect x="29" y="23" width="1" height="1" fill="#FFFFFF" />
<rect x="30" y="23" width="1" height="1" fill="#FFFFFF" />
<rect x="31" y="23" width="1" height="1" fill="#FFFFFF" />
<rect x="32" y="23" width="1" height="1" fill="#000000" />
<rect x="33" y="23" width="1" height="1" fill="#FFFFFF" />
<rect x="34" y="23" width="1" height="1" fill="#FFFFFF" />
<rect x="14" y="24" width="1" height="1" fill="#000000" />
<rect x="15" y="24" width="1" height="1" fill="#000000" />
<rect x="16" y="24" width="1" height="1" fill="#000000" />
<rect x="21" y="24" width="1" height="1" fill="#000000" />
<rect x="22" y="24" width="1" height="1" fill="#FFFFFF" />
<rect x="23" y="24" width="1" height="1" fill="#FFFFFF" />
<rect x="24" y="24" width="1" height="1" fill="#000000" />
<rect x="25" y="24" width="1" height="1" fill="#FFFFFF" />
<rect x="26" y="24" width="1" height="1" fill="#FFFFFF" />
<rect x="27" y="24" width="1" height="1" fill="#FFFFFF" />
<rect x="28" y="24" width="1" height="1" fill="#000000" />
<rect x="29" y="24" width="1" height="1" fill="#FFFFFF" />
<rect x="30" y="24" width="1" height="1" fill="#FFFFFF" />
<rect x="31" y="24" width="1" height="1" fill="#FFFFFF" />
<rect x="32" y="24" width="1" height="1" fill="#000000" />
<rect x="33" y="24" width="1" height="1" fill="#FFFFFF" />
<rect x="34" y="24" width="1" height="1" fill="#FFFFFF" />
<rect x="14" y="25" width="1" height="1" fill="#000000" />
<rect x="15" y="25" width="1" height="1" fill="#FFFFFF" />
<rect x="16" y="25" width="1" height="1" fill="#FFFFFF" />
<rect x="17" y="25" width="1" height="1" fill="#000000" />
<rect x="18" y="25" width="1" height="1" fill="#000000" />
<rect x="21" y="25" width="1" height="1" fill="#000000" />
<rect x="22" y="25" width="1" height="1" fill="#FFFFFF" />
<rect x="23" y="25" width="1" height="1" fill="#FFFFFF" />
<rect x="24" y="25" width="1" height="1" fill="#FFFFFF" />
<rect x="25" y="25" width="1" height="1" fill="#FFFFFF" />
<rect x="26" y="25" width="1" height="1" fill="#FFFFFF" />
<rect x="27" y="25" width="1" height="1" fill="#FFFFFF" />
<rect x="28" y="25" width="1" height="1" fill="#FFFFFF" />
<rect x="29" y="25" width="1" height="1" fill="#FFFFFF" />
<rect x="30" y="25" width="1" height="1" fill="#FFFFFF" />
<rect x="31" y="25" width="1" height="1" fill="#FFFFFF" />
<rect x="32" y="25" width="1" height="1" fill="#FFFFFF" />
<rect x="33" y="25" width="1" height="1" fill="#FFFFFF" />
<rect x="34" y="25" width="1" height="1" fill="#FFFFFF" />
<rect x="14" y="26" width="1" height="1" fill="#000000" />
<rect x="15" y="26" width="1" height="1" fill="#000000" />
<rect x="16" y="26" width="1" height="1" fill="#FFFFFF" />
<rect x="17" y="26" width="1" height="1" fill="#FFFFFF" />
<rect x="18" y="26" width="1" height="1" fill="#000000" />
<rect x="19" y="26" width="1" height="1" fill="#000000" />
<rect x="21" y="26" width="1" height="1" fill="#000000" />
<rect x="22" y="26" width="1" height="1" fill="#FFFFFF" />
<rect x="23" y="26" width="1" height="1" fill="#FFFFFF" />
<rect x="24" y="26" width="1" height="1" fill="#FFFFFF" />
<rect x="25" y="26" width="1" height="1" fill="#FFFFFF" />
<rect x="26" y="26" width="1" height="1" fill="#FFFFFF" />
<rect x="27" y="26" width="1" height="1" fill="#FFFFFF" />
<rect x="28" y="26" width="1" height="1" fill="#FFFFFF" />
<rect x="29" y="26" width="1" height="1" fill="#FFFFFF" />
<rect x="30" y="26" width="1" height="1" fill="#FFFFFF" />
<rect x="31" y="26" width="1" height="1" fill="#FFFFFF" />
<rect x="32" y="26" width="1" height="1" fill="#FFFFFF" />
<rect x="33" y="26" width="1" height="1" fill="#FFFFFF" />
<rect x="34" y="26" width="1" height="1" fill="#FFFFFF" />
<rect x="15" y="27" width="1" height="1" fill="#000000" />
<rect x="16" y="27" width="1" height="1" fill="#FFFFFF" />
<rect x="17" y="27" width="1" height="1" fill="#FFFFFF" />
<rect x="18" y="27" width="1" height="1" fill="#FFFFFF" />
<rect x="19" y="27" width="1" height="1" fill="#000000" />
<rect x="20" y="27" width="1" height="1" fill="#000000" />
<rect x="21" y="27" width="1" height="1" fill="#000000" />
<rect x="22" y="27" width="1" height="1" fill="#FFFFFF" />
<rect x="23" y="27" width="1" height="1" fill="#FFFFFF" />
<rect x="24" y="27" width="1" height="1" fill="#FFFFFF" />
<rect x="25" y="27" width="1" height="1" fill="#FFFFFF" />
<rect x="26" y="27" width="1" height="1" fill="#FFFFFF" />
<rect x="27" y="27" width="1" height="1" fill="#FFFFFF" />
<rect x="28" y="27" width="1" height="1" fill="#FFFFFF" />
<rect x="29" y="27" width="1" height="1" fill="#FFFFFF" />
<rect x="30" y="27" width="1" height="1" fill="#FFFFFF" />
<rect x="31" y="27" width="1" height="1" fill="#FFFFFF" />
<rect x="32" y="27" width="1" height="1" fill="#FFFFFF" />
<rect x="33" y="27" width="1" height="1" fill="#FFFFFF" />
<rect x="34" y="27" width="1" height="1" fill="#FFFFFF" />
<rect x="16" y="28" width="1" height="1" fill="#000000" />
<rect x="17" y="28" width="1" height="1" fill="#FFFFFF" />
<rect x="18" y="28" width="1" height="1" fill="#FFFFFF" />
<rect x="19" y="28" width="1" height="1" fill="#FFFFFF" />
<rect x="20" y="28" width="1" height="1" fill="#000000" />
<rect x="21" y="28" width="1" height="1" fill="#FFFFFF" />
<rect x="22" y="28" width="1" height="1" fill="#FFFFFF" />
<rect x="23" y="28" width="1" height="1" fill="#FFFFFF" />
<rect x="24" y="28" width="1" height="1" fill="#FFFFFF" />
<rect x="25" y="28" width="1" height="1" fill="#FFFFFF" />
<rect x="26" y="28" width="1" height="1" fill="#FFFFFF" />
<rect x="27" y="28" width="1" height="1" fill="#FFFFFF" />
<rect x="28" y="28" width="1" height="1" fill="#FFFFFF" />
<rect x="29" y="28" width="1" height="1" fill="#FFFFFF" />
<rect x="30" y="28" width="1" height="1" fill="#FFFFFF" />
<rect x="31" y="28" width="1" height="1" fill="#FFFFFF" />
<rect x="32" y="28" width="1" height="1" fill="#FFFFFF" />
<rect x="33" y="28" width="1" height="1" fill="#FFFFFF" />
<rect x="34" y="28" width="1" height="1" fill="#FFFFFF" />
<rect x="17" y="29" width="1" height="1" fill="#000000" />
<rect x="18" y="29" width="1" height="1" fill="#FFFFFF" />
<rect x="19" y="29" width="1" height="1" fill="#FFFFFF" />
<rect x="20" y="29" width="1" height="1" fill="#FFFFFF" />
<rect x="21" y="29" width="1" height="1" fill="#FFFFFF" />
<rect x="22" y="29" width="1" height="1" fill="#FFFFFF" />
<rect x="23" y="29" width="1" height="1" fill="#FFFFFF" />
<rect x="24" y="29" width="1" height="1" fill="#FFFFFF" />
<rect x="25" y="29" width="1" height="1" fill="#FFFFFF" />
<rect x="26" y="29" width="1" height="1" fill="#FFFFFF" />
<rect x="27" y="29" width="1" height="1" fill="#FFFFFF" />
<rect x="28" y="29" width="1" height="1" fill="#FFFFFF" />
<rect x="29" y="29" width="1" height="1" fill="#FFFFFF" />
<rect x="30" y="29" width="1" height="1" fill="#FFFFFF" />
<rect x="31" y="29" width="1" height="1" fill="#FFFFFF" />
<rect x="32" y="29" width="1" height="1" fill="#FFFFFF" />
<rect x="33" y="29" width="1" height="1" fill="#FFFFFF" />
<rect x="34" y="29" width="1" height="1" fill="#FFFFFF" />
<rect x="18" y="30" width="1" height="1" fill="#000000" />
<rect x="19" y="30" width="1" height="1" fill="#FFFFFF" />
<rect x="20" y="30" width="1" height="1" fill="#FFFFFF" />
<rect x="21" y="30" width="1" height="1" fill="#FFFFFF" />
<rect x="22" y="30" width="1" height="1" fill="#FFFFFF" />
<rect x="23" y="30" width="1" height="1" fill="#FFFFFF" />
<rect x="24" y="30" width="1" height="1" fill="#FFFFFF" />
<rect x="25" y="30" width="1" height="1" fill="#FFFFFF" />
<rect x="26" y="30" width="1" height="1" fill="#FFFFFF" />
<rect x="27" y="30" width="1" height="1" fill="#FFFFFF" />
<rect x="28" y="30" width="1" height="1" fill="#FFFFFF" />
<rect x="29" y="30" width="1" height="1" fill="#FFFFFF" />
<rect x="30" y="30" width="1" height="1" fill="#FFFFFF" />
<rect x="31" y="30" width="1" height="1" fill="#FFFFFF" />
<rect x="32" y="30" width="1" height="1" fill="#FFFFFF" />
<rect x="33" y="30" width="1" height="1" fill="#FFFFFF" />
<rect x="34" y="30" width="1" height="1" fill="#000000" />
<rect x="19" y="31" width="1" height="1" fill="#000000" />
<rect x="20" y="31" width="1" height="1" fill="#FFFFFF" />
<rect x="21" y="31" width="1" height="1" fill="#FFFFFF" />
<rect x="22" y="31" width="1" height="1" fill="#FFFFFF" />
<rect x="23" y="31" width="1" height="1" fill="#FFFFFF" />
<rect x="24" y="31" width="1" height="1" fill="#FFFFFF" />
<rect x="25" y="31" width="1" height="1" fill="#FFFFFF" />
<rect x="26" y="31" width="1" height="1" fill="#FFFFFF" />
<rect x="27" y="31" width="1" height="1" fill="#FFFFFF" />
<rect x="28" y="31" width="1" height="1" fill="#FFFFFF" />
<rect x="29" y="31" width="1" height="1" fill="#FFFFFF" />
<rect x="30" y="31" width="1" height="1" fill="#FFFFFF" />
<rect x="31" y="31" width="1" height="1" fill="#FFFFFF" />
<rect x="32" y="31" width="1" height="1" fill="#FFFFFF" />
<rect x="33" y="31" width="1" height="1" fill="#FFFFFF" />
<rect x="34" y="31" width="1" height="1" fill="#000000" />
<rect x="19" y="32" width="1" height="1" fill="#000000" />
<rect x="20" y="32" width="1" height="1" fill="#000000" />
<rect x="21" y="32" width="1" height="1" fill="#FFFFFF" />
<rect x="22" y="32" width="1" height="1" fill="#FFFFFF" />
<rect x="23" y="32" width="1" height="1" fill="#FFFFFF" />
<rect x="24" y="32" width="1" height="1" fill="#FFFFFF" />
<rect x="25" y="32" width="1" height="1" fill="#FFFFFF" />
<rect x="26" y="32" width="1" height="1" fill="#FFFFFF" />
<rect x="27" y="32" width="1" height="1" fill="#FFFFFF" />
<rect x="28" y="32" width="1" height="1" fill="#FFFFFF" />
<rect x="29" y="32" width="1" height="1" fill="#FFFFFF" />
<rect x="30" y="32" width="1" height="1" fill="#FFFFFF" />
<rect x="31" y="32" width="1" height="1" fill="#FFFFFF" />
<rect x="32" y="32" width="1" height="1" fill="#FFFFFF" />
<rect x="33" y="32" width="1" height="1" fill="#FFFFFF" />
<rect x="34" y="32" width="1" height="1" fill="#000000" />
<rect x="20" y="33" width="1" height="1" fill="#000000" />
<rect x="21" y="33" width="1" height="1" fill="#FFFFFF" />
<rect x="22" y="33" width="1" height="1" fill="#FFFFFF" />
<rect x="23" y="33" width="1" height="1" fill="#FFFFFF" />
<rect x="24" y="33" width="1" height="1" fill="#FFFFFF" />
<rect x="25" y="33" width="1" height="1" fill="#FFFFFF" />
<rect x="26" y="33" width="1" height="1" fill="#FFFFFF" />
<rect x="27" y="33" width="1" height="1" fill="#FFFFFF" />
<rect x="28" y="33" width="1" height="1" fill="#FFFFFF" />
<rect x="29" y="33" width="1" height="1" fill="#FFFFFF" />
<rect x="30" y="33" width="1" height="1" fill="#FFFFFF" />
<rect x="31" y="33" width="1" height="1" fill="#FFFFFF" />
<rect x="32" y="33" width="1" height="1" fill="#FFFFFF" />
<rect x="33" y="33" width="1" height="1" fill="#FFFFFF" />
<rect x="34" y="33" width="1" height="1" fill="#000000" />
<rect x="21" y="34" width="1" height="1" fill="#FFFFFF" />
<rect x="22" y="34" width="1" height="1" fill="#FFFFFF" />
<rect x="23" y="34" width="1" height="1" fill="#FFFFFF" />
<rect x="24" y="34" width="1" height="1" fill="#FFFFFF" />
<rect x="25" y="34" width="1" height="1" fill="#FFFFFF" />
<rect x="26" y="34" width="1" height="1" fill="#FFFFFF" />
<rect x="27" y="34" width="1" height="1" fill="#FFFFFF" />
<rect x="28" y="34" width="1" height="1" fill="#FFFFFF" />
<rect x="29" y="34" width="1" height="1" fill="#FFFFFF" />
<rect x="30" y="34" width="1" height="1" fill="#FFFFFF" />
<rect x="31" y="34" width="1" height="1" fill="#FFFFFF" />
<rect x="32" y="34" width="1" height="1" fill="#FFFFFF" />
<rect x="33" y="34" width="1" height="1" fill="#FFFFFF" />
<rect x="34" y="34" width="1" height="1" fill="#000000" />
<rect x="21" y="35" width="1" height="1" fill="#000000" />
<rect x="22" y="35" width="1" height="1" fill="#FFFFFF" />
<rect x="23" y="35" width="1" height="1" fill="#FFFFFF" />
<rect x="24" y="35" width="1" height="1" fill="#FFFFFF" />
<rect x="25" y="35" width="1" height="1" fill="#FFFFFF" />
<rect x="26" y="35" width="1" height="1" fill="#FFFFFF" />
<rect x="27" y="35" width="1" height="1" fill="#FFFFFF" />
<rect x="28" y="35" width="1" height="1" fill="#FFFFFF" />
<rect x="29" y="35" width="1" height="1" fill="#FFFFFF" />
<rect x="30" y="35" width="1" height="1" fill="#FFFFFF" />
<rect x="31" y="35" width="1" height="1" fill="#FFFFFF" />
<rect x="32" y="35" width="1" height="1" fill="#FFFFFF" />
<rect x="33" y="35" width="1" height="1" fill="#000000" />
<rect x="22" y="36" width="1" height="1" fill="#000000" />
<rect x="23" y="36" width="1" height="1" fill="#FFFFFF" />
<rect x="24" y="36" width="1" height="1" fill="#FFFFFF" />
<rect x="25" y="36" width="1" height="1" fill="#FFFFFF" />
<rect x="26" y="36" width="1" height="1" fill="#FFFFFF" />
<rect x="27" y="36" width="1" height="1" fill="#FFFFFF" />
<rect x="28" y="36" width="1" height="1" fill="#FFFFFF" />
<rect x="29" y="36" width="1" height="1" fill="#FFFFFF" />
<rect x="30" y="36" width="1" height="1" fill="#FFFFFF" />
<rect x="31" y="36" width="1" height="1" fill="#FFFFFF" />
<rect x="32" y="36" width="1" height="1" fill="#000000" />
<rect x="33" y="36" width="1" height="1" fill="#000000" />
<rect x="22" y="37" width="1" height="1" fill="#000000" />
<rect x="23" y="37" width="1" height="1" fill="#FFFFFF" />
<rect x="24" y="37" width="1" height="1" fill="#FFFFFF" />
<rect x="25" y="37" width="1" height="1" fill="#FFFFFF" />
<rect x="26" y="37" width="1" height="1" fill="#FFFFFF" />
<rect x="27" y="37" width="1" height="1" fill="#FFFFFF" />
<rect x="28" y="37" width="1" height="1" fill="#FFFFFF" />
<rect x="29" y="37" width="1" height="1" fill="#FFFFFF" />
<rect x="30" y="37" width="1" height="1" fill="#FFFFFF" />
<rect x="31" y="37" width="1" height="1" fill="#FFFFFF" />
<rect x="32" y="37" width="1" height="1" fill="#000000" />
<rect x="23" y="38" width="1" height="1" fill="#000000" />
<rect x="24" y="38" width="1" height="1" fill="#FFFFFF" />
<rect x="25" y="38" width="1" height="1" fill="#FFFFFF" />
<rect x="26" y="38" width="1" height="1" fill="#FFFFFF" />
<rect x="27" y="38" width="1" height="1" fill="#FFFFFF" />
<rect x="28" y="38" width="1" height="1" fill="#FFFFFF" />
<rect x="29" y="38" width="1" height="1" fill="#FFFFFF" />
<rect x="30" y="38" width="1" height="1" fill="#FFFFFF" />
<rect x="31" y="38" width="1" height="1" fill="#000000" />
<rect x="23" y="39" width="1" height="1" fill="#000000" />
<rect x="24" y="39" width="1" height="1" fill="#000000" />
<rect x="25" y="39" width="1" height="1" fill="#000000" />
<rect x="26" y="39" width="1" height="1" fill="#000000" />
<rect x="27" y="39" width="1" height="1" fill="#000000" />
<rect x="28" y="39" width="1" height="1" fill="#000000" />
<rect x="29" y="39" width="1" height="1" fill="#000000" />
<rect x="30" y="39" width="1" height="1" fill="#000000" />
<rect x="31" y="39" width="1" height="1" fill="#000000" />
</svg>